<svg width="25" height="25" viewBox="0 0 25 25" fill="none" xmlns="http://www.w3.org/2000/svg">
<g id="bell-notification" opacity="0.4">
<path id="bell-notification_2" d="M10.3658 20.2539C10.0456 20.4405 9.93709 20.8508 10.1235 21.1713L10.1235 21.1714C10.6241 22.0307 11.516 22.5459 12.5052 22.5459C13.4945 22.5459 14.3852 22.0306 14.8868 21.1715C15.0732 20.8523 14.9662 20.4406 14.6465 20.2538L14.6463 20.2537C14.3282 20.0685 13.9155 20.1755 13.7288 20.4952L13.7288 20.4952C13.4688 20.9406 13.0124 21.2042 12.5062 21.2042C11.9989 21.2042 11.5427 20.9405 11.2838 20.4954L11.2834 20.4948C11.0961 20.1763 10.6848 20.0669 10.3658 20.2539ZM10.3658 20.2539C10.3659 20.2539 10.3661 20.2538 10.3662 20.2537L10.4417 20.3833L10.3658 20.254C10.3658 20.254 10.3658 20.254 10.3658 20.2539ZM21.3578 18.3313L21.3577 18.3313C21.519 18.5329 21.5496 18.8083 21.4372 19.0413L21.437 19.0416C21.3245 19.2732 21.09 19.4209 20.8323 19.4209H4.16561C3.908 19.4209 3.67308 19.2733 3.56162 19.0409C3.45044 18.8092 3.481 18.5332 3.64189 18.3317M21.3578 18.3313L3.75936 18.425M21.3578 18.3313L21.3563 18.3295C21.3566 18.3299 21.326 18.2915 21.2714 18.2167C21.2175 18.1429 21.141 18.0349 21.0496 17.8967C20.8667 17.6203 20.6243 17.2235 20.3826 16.7377C19.8982 15.7644 19.4208 14.4431 19.4208 13.0209V10.4167C19.4208 10.0463 19.1203 9.74585 18.75 9.74585C18.3796 9.74585 18.0792 10.0463 18.0792 10.4167V13.0209C18.0792 15.1215 18.9318 16.9735 19.5806 18.0792M21.3578 18.3313L19.5806 18.0792M3.64189 18.3317C3.642 18.3316 3.64211 18.3315 3.64223 18.3313L3.75936 18.425M3.64189 18.3317L3.64187 18.3318L3.64175 18.3319L3.75936 18.425M3.64189 18.3317L3.64223 18.3313L3.6435 18.3297L3.64812 18.3237L3.66523 18.3014C3.68002 18.2819 3.70138 18.2533 3.72837 18.2162C3.78235 18.142 3.85883 18.0336 3.95026 17.8949C4.13318 17.6174 4.37557 17.2196 4.61735 16.7331C5.10184 15.7584 5.57916 14.4373 5.57916 13.0209V9.37502C5.57916 5.55884 8.68381 2.45419 12.5 2.45419C12.8703 2.45419 13.1708 2.75468 13.1708 3.12502C13.1708 3.49536 12.8703 3.79585 12.5 3.79585C9.42346 3.79585 6.92082 6.29849 6.92082 9.37502V13.0209C6.92082 15.1215 6.06814 16.9735 5.41942 18.0792M3.75936 18.425C3.77915 18.4 5.72916 15.9177 5.72916 13.0209V9.37502C5.72916 5.64169 8.76665 2.60419 12.5 2.60419C12.7875 2.60419 13.0208 2.83752 13.0208 3.12502C13.0208 3.41252 12.7875 3.64585 12.5 3.64585C9.34061 3.64585 6.77082 6.21565 6.77082 9.37502V13.0209C6.77082 15.1325 5.89216 16.9946 5.24514 18.0792H5.41942M5.41942 18.0792H19.5806M5.41942 18.0792C5.38913 18.1308 5.35927 18.1809 5.32997 18.2292H19.67M19.5806 18.0792H19.7548C19.7857 18.131 19.8161 18.181 19.8458 18.2292H19.67M19.5806 18.0792C19.6109 18.1308 19.6407 18.1809 19.67 18.2292M19.5806 18.0792L19.67 18.2292M17.7083 2.45419C16.1901 2.45419 14.9542 3.69009 14.9542 5.20835C14.9542 6.72661 16.1901 7.96252 17.7083 7.96252C19.2266 7.96252 20.4625 6.72661 20.4625 5.20835C20.4625 3.69009 19.2266 2.45419 17.7083 2.45419ZM17.7083 6.62085C16.9297 6.62085 16.2958 5.98697 16.2958 5.20835C16.2958 4.42974 16.9297 3.79585 17.7083 3.79585C18.4869 3.79585 19.1208 4.42974 19.1208 5.20835C19.1208 5.98697 18.4869 6.62085 17.7083 6.62085Z" fill="black" stroke="black" stroke-width="0.3"/>
</g>
</svg>
