<svg width="32" height="32" viewBox="0 0 32 32" fill="none" xmlns="http://www.w3.org/2000/svg">
<g id="calendar-minus-alt">
<path id="calendar-minus-alt_2" d="M14.6667 26H6.66667C4.36133 26 3.33333 24.972 3.33333 22.6667L3.33333 11.3333H26V14.6667C26 15.0347 26.2987 15.3333 26.6667 15.3333C27.0347 15.3333 27.3333 15.0347 27.3333 14.6667V8.66667C27.3333 5.61333 25.72 4 22.6667 4L20.6667 4V2.66667C20.6667 2.29867 20.368 2 20 2C19.632 2 19.3333 2.29867 19.3333 2.66667V4L10 4V2.66667C10 2.29867 9.70133 2 9.33333 2C8.96533 2 8.66667 2.29867 8.66667 2.66667V4H6.66667C3.61333 4 2 5.61333 2 8.66667L2 22.6667C2 25.72 3.61333 27.3333 6.66667 27.3333H14.6667C15.0347 27.3333 15.3333 27.0347 15.3333 26.6667C15.3333 26.2987 15.0347 26 14.6667 26ZM6.66667 5.33333H8.66667V6.66667C8.66667 7.03467 8.96533 7.33333 9.33333 7.33333C9.70133 7.33333 10 7.03467 10 6.66667V5.33333H19.3333V6.66667C19.3333 7.03467 19.632 7.33333 20 7.33333C20.368 7.33333 20.6667 7.03467 20.6667 6.66667V5.33333H22.6667C24.972 5.33333 26 6.36133 26 8.66667V10H3.33333V8.66667C3.33333 6.36133 4.36133 5.33333 6.66667 5.33333ZM26.3333 24C26.3333 24.368 26.0347 24.6667 25.6667 24.6667H22.3333C21.9653 24.6667 21.6667 24.368 21.6667 24C21.6667 23.632 21.9653 23.3333 22.3333 23.3333H25.6667C26.0347 23.3333 26.3333 23.632 26.3333 24ZM24 18C20.692 18 18 20.692 18 24C18 27.308 20.692 30 24 30C27.308 30 30 27.308 30 24C30 20.692 27.308 18 24 18ZM24 28.6667C21.4267 28.6667 19.3333 26.5733 19.3333 24C19.3333 21.4267 21.4267 19.3333 24 19.3333C26.5733 19.3333 28.6667 21.4267 28.6667 24C28.6667 26.5733 26.5733 28.6667 24 28.6667ZM10.3333 16C10.3333 16.5533 9.88788 17 9.33854 17C8.79054 17 8.33333 16.5533 8.33333 16C8.33333 15.4467 8.76935 15 9.31869 15H9.33854C9.88788 15 10.3333 15.4467 10.3333 16ZM15.6667 16C15.6667 16.5533 15.2212 17 14.6719 17C14.1239 17 13.6667 16.5533 13.6667 16C13.6667 15.4467 14.1027 15 14.652 15H14.6719C15.2212 15 15.6667 15.4467 15.6667 16ZM10.3333 21.3333C10.3333 21.8867 9.88788 22.3333 9.33854 22.3333C8.79054 22.3333 8.33333 21.8867 8.33333 21.3333C8.33333 20.78 8.76935 20.3333 9.31869 20.3333H9.33854C9.88788 20.3333 10.3333 20.78 10.3333 21.3333Z" fill="#B69900"/>
</g>
</svg>
