<svg width="70" height="69" viewBox="0 0 70 69" fill="none" xmlns="http://www.w3.org/2000/svg">
<g id="calendar">
<path id="calendar_2" d="M43.6915 12.8458L40.3108 13.7517L39.7069 11.4978C39.5402 10.8758 38.9 10.5062 38.278 10.6729C37.6559 10.8396 37.2863 11.4797 37.453 12.1018L38.0569 14.3556L22.2801 18.583L21.6762 16.3291C21.5096 15.7071 20.8694 15.3375 20.2474 15.5042C19.6253 15.6709 19.2557 16.311 19.4224 16.933L20.0263 19.1869L16.6456 20.0927C11.4843 21.4757 9.48792 24.9336 10.8709 30.0948L17.2119 53.76C18.5949 58.9213 22.0528 60.9177 27.214 59.5347L54.2599 52.2878C59.4212 50.9048 61.4176 47.447 60.0347 42.2857L53.6936 18.6205C52.3106 13.4592 48.8528 11.4628 43.6915 12.8458ZM17.2495 22.3466L20.6302 21.4407L21.2341 23.6945C21.4008 24.3166 22.041 24.6862 22.663 24.5195C23.2851 24.3528 23.6546 23.7127 23.488 23.0906L22.8841 20.8368L38.6608 16.6094L39.2648 18.8632C39.4314 19.4853 40.0716 19.8549 40.6936 19.6882C41.3157 19.5215 41.6853 18.8814 41.5186 18.2593L40.9147 16.0055L44.2954 15.0996C48.1923 14.0555 50.3956 15.3276 51.4398 19.2244L52.0437 21.4782L13.7286 31.7447L13.1247 29.4909C12.0805 25.594 13.3526 23.3907 17.2495 22.3466ZM53.656 50.0339L26.6101 57.2809C22.7132 58.325 20.5099 57.053 19.4658 53.1561L14.3325 33.9986L52.6476 23.7321L57.7808 42.8896C58.825 46.7865 57.5529 48.9898 53.656 50.0339ZM28.2788 38.7164C28.5294 39.6518 27.9787 40.6086 27.0502 40.8574C26.1238 41.1056 25.1487 40.5576 24.8981 39.6223C24.6474 38.687 25.1822 37.7344 26.1107 37.4856L26.1443 37.4766C27.0729 37.2278 28.0282 37.7811 28.2788 38.7164ZM37.2941 36.3008C37.5447 37.2361 36.9941 38.1929 36.0655 38.4417C35.1392 38.6899 34.164 38.142 33.9134 37.2066C33.6627 36.2713 34.1975 35.3188 35.126 35.07L35.1596 35.061C36.0882 34.8122 37.0435 35.3654 37.2941 36.3008ZM46.3094 33.8851C46.56 34.8205 46.0094 35.7773 45.0808 36.0261C44.1545 36.2743 43.1793 35.7263 42.9287 34.791C42.6781 33.8557 43.2128 32.9031 44.1414 32.6543L44.1749 32.6453C45.1035 32.3965 46.0588 32.9498 46.3094 33.8851ZM30.6944 47.7317C30.9451 48.6671 30.3944 49.6239 29.4658 49.8727C28.5395 50.1209 27.5643 49.5729 27.3137 48.6376C27.0631 47.7023 27.5978 46.7497 28.5264 46.5009L28.5599 46.4919C29.4885 46.2431 30.4438 46.7964 30.6944 47.7317ZM39.7098 45.3161C39.9604 46.2514 39.4097 47.2082 38.4811 47.457C37.5548 47.7052 36.5796 47.1573 36.329 46.222C36.0784 45.2866 36.6131 44.3341 37.5417 44.0853L37.5753 44.0763C38.5038 43.8275 39.4591 44.3807 39.7098 45.3161ZM48.7251 42.9004C48.9757 43.8358 48.425 44.7926 47.4964 45.0414C46.5701 45.2896 45.5949 44.7416 45.3443 43.8063C45.0937 42.871 45.6284 41.9185 46.557 41.6696L46.5906 41.6606C47.5191 41.4118 48.4744 41.9651 48.7251 42.9004Z" fill="#0C58DB"/>
</g>
</svg>
