<svg width="88" height="87" viewBox="0 0 88 87" fill="none" xmlns="http://www.w3.org/2000/svg">
<g id="calendar-minus-alt">
<path id="calendar-minus-alt_2" d="M35.3937 64.1806L18.2363 59.5833C13.2922 58.2585 11.6782 55.463 13.003 50.5188L19.5158 26.2126L68.1283 39.2383L66.2128 46.3872C66.0013 47.1764 66.4702 47.9886 67.2595 48.2C68.0487 48.4115 68.8609 47.9426 69.0723 47.1534L72.5203 34.2854C74.275 27.737 71.742 23.3498 65.1936 21.5951L60.9043 20.4458L61.6705 17.5863C61.882 16.797 61.4131 15.9848 60.6238 15.7734C59.8346 15.5619 59.0224 16.0308 58.8109 16.82L58.0447 19.6796L38.0278 14.3161L38.794 11.4565C39.0055 10.6673 38.5366 9.85511 37.7474 9.64363C36.9581 9.43216 36.1459 9.90107 35.9345 10.6903L35.1682 13.5499L30.8789 12.4005C24.3305 10.6459 19.9433 13.1788 18.1887 19.7272L10.1434 49.7526C8.38878 56.301 10.9217 60.6882 17.4701 62.4428L34.6275 67.0401C35.4167 67.2516 36.2289 66.7827 36.4404 65.9935C36.6518 65.2042 36.1829 64.392 35.3937 64.1806ZM30.1127 15.2601L34.402 16.4094L33.6358 19.269C33.4243 20.0582 33.8932 20.8704 34.6825 21.0819C35.4717 21.2933 36.2839 20.8244 36.4954 20.0352L37.2616 17.1756L57.2785 22.5392L56.5123 25.3987C56.3008 26.188 56.7697 27.0001 57.559 27.2116C58.3482 27.4231 59.1604 26.9542 59.3718 26.1649L60.1381 23.3054L64.4274 24.4547C69.3716 25.7795 70.9855 28.575 69.6608 33.5191L68.8945 36.3787L20.282 23.353L21.0483 20.4935C22.373 15.5493 25.1685 13.9353 30.1127 15.2601ZM61.5642 66.5956C61.3527 67.3849 60.5405 67.8538 59.7513 67.6423L52.6024 65.7268C51.8131 65.5153 51.3442 64.7031 51.5557 63.9139C51.7672 63.1246 52.5794 62.6557 53.3686 62.8672L60.5175 64.7827C61.3067 64.9942 61.7756 65.8064 61.5642 66.5956ZM60.0079 52.3867C52.9133 50.4857 45.5929 54.7122 43.6919 61.8068C41.7909 68.9013 46.0174 76.2218 53.112 78.1228C60.2065 80.0237 67.527 75.7973 69.4279 68.7027C71.3289 61.6081 67.1025 54.2877 60.0079 52.3867ZM53.8782 75.2632C48.3592 73.7844 45.0727 68.0919 46.5515 62.573C48.0303 57.054 53.7227 53.7675 59.2417 55.2463C64.7606 56.7251 68.0472 62.4176 66.5684 67.9365C65.0896 73.4554 59.3971 76.742 53.8782 75.2632ZM31.8467 40.2437C31.5288 41.4304 30.3167 42.1324 29.1386 41.8167C27.9633 41.5018 27.2394 40.2811 27.5574 39.0943C27.8754 37.9076 29.0672 37.2002 30.2453 37.5159L30.2879 37.5273C31.466 37.843 32.1647 39.057 31.8467 40.2437ZM43.285 43.3085C42.967 44.4953 41.755 45.1972 40.5768 44.8815C39.4015 44.5666 38.6777 43.3459 38.9956 42.1592C39.3136 40.9725 40.5054 40.2651 41.6836 40.5808L41.7261 40.5922C42.9043 40.9079 43.603 42.1218 43.285 43.3085ZM28.7819 51.6819C28.4639 52.8686 27.2519 53.5706 26.0737 53.2549C24.8984 52.94 24.1746 51.7193 24.4925 50.5326C24.8105 49.3459 26.0023 48.6385 27.1805 48.9542L27.223 48.9656C28.4012 49.2812 29.0999 50.4952 28.7819 51.6819Z" fill="#B69900"/>
</g>
</svg>
