<svg width="25" height="25" viewBox="0 0 25 25" fill="none" xmlns="http://www.w3.org/2000/svg">
<g id="clipboard-list-check" opacity="0.4">
<path id="clipboard-list-check_2" d="M8.03238 13.6685L8.03295 13.6691C8.15861 13.7934 8.32867 13.8646 8.5072 13.8646C8.68504 13.8646 8.85564 13.7949 8.98202 13.6685L10.3706 12.28C10.6323 12.0183 10.6323 11.5931 10.3706 11.3314C10.1077 11.0685 9.684 11.0689 9.42046 11.3298L9.41986 11.3304L8.50613 12.2451L8.28622 12.0251C8.02452 11.7634 7.5993 11.7634 7.3376 12.0251C7.07589 12.2868 7.07589 12.7121 7.3376 12.9738L8.03238 13.6685ZM8.03238 17.8352L8.03295 17.8358C8.15861 17.9601 8.32867 18.0312 8.5072 18.0312C8.68504 18.0312 8.85564 17.9616 8.98202 17.8352L10.3706 16.4467C10.6323 16.185 10.6323 15.7597 10.3706 15.498C10.1077 15.2352 9.684 15.2356 9.42046 15.4965L9.41986 15.4971L8.50613 16.4117L8.28622 16.1918C8.02452 15.9301 7.5993 15.9301 7.3376 16.1918C7.07589 16.4535 7.07589 16.8787 7.3376 17.1404L8.03238 17.8352ZM17.7083 4.53746H17.3342C17.3072 3.91534 17.1103 3.40519 16.7483 3.04324C16.3577 2.65261 15.7944 2.45413 15.1041 2.45413L9.89575 2.45413C9.20542 2.45413 8.64217 2.65261 8.25153 3.04324C7.88959 3.40519 7.6926 3.91534 7.66563 4.53746H7.29159C6.07365 4.53746 5.11833 4.85952 4.46807 5.50978C3.81781 6.16004 3.49575 7.11536 3.49575 8.33329L3.49575 18.75C3.49575 19.9679 3.81781 20.9232 4.46807 21.5735C5.11833 22.2237 6.07365 22.5458 7.29159 22.5458H17.7083C18.9262 22.5458 19.8815 22.2237 20.5318 21.5735C21.182 20.9232 21.5041 19.9679 21.5041 18.75V8.33329C21.5041 7.11536 21.182 6.16004 20.5318 5.50978C19.8815 4.85952 18.9262 4.53746 17.7083 4.53746ZM9.00409 4.68746C9.00409 4.32623 9.07539 4.11578 9.19973 3.99144C9.32408 3.8671 9.53452 3.79579 9.89575 3.79579H15.1041C15.4653 3.79579 15.6758 3.8671 15.8001 3.99144C15.9244 4.11578 15.9958 4.32623 15.9958 4.68746V5.72913C15.9958 6.09036 15.9244 6.3008 15.8001 6.42514C15.6758 6.54949 15.4653 6.62079 15.1041 6.62079H9.89575C9.53452 6.62079 9.32408 6.54949 9.19973 6.42514C9.07539 6.3008 9.00409 6.09036 9.00409 5.72913V4.68746ZM20.1624 18.75C20.1624 19.6317 19.9655 20.2356 19.5797 20.6214C19.1939 21.0072 18.59 21.2041 17.7083 21.2041H7.29159C6.40987 21.2041 5.80597 21.0072 5.42018 20.6214C5.03439 20.2356 4.83742 19.6317 4.83742 18.75V8.33329C4.83742 7.45158 5.03439 6.84768 5.42018 6.46188C5.80597 6.07609 6.40987 5.87913 7.29159 5.87913H7.66563C7.6926 6.50125 7.88959 7.01139 8.25153 7.37334C8.64217 7.76398 9.20542 7.96246 9.89575 7.96246H15.1041C15.7944 7.96246 16.3577 7.76398 16.7483 7.37334C17.1103 7.01139 17.3072 6.50125 17.3342 5.87913H17.7083C18.59 5.87913 19.1939 6.07609 19.5797 6.46188C19.9655 6.84768 20.1624 7.45158 20.1624 8.33329V18.75ZM17.1874 13.1708C17.5578 13.1708 17.8583 12.8703 17.8583 12.5C17.8583 12.1296 17.5578 11.8291 17.1874 11.8291H13.0208C12.6504 11.8291 12.3499 12.1296 12.3499 12.5C12.3499 12.8703 12.6504 13.1708 13.0208 13.1708H17.1874ZM17.1874 17.3375C17.5578 17.3375 17.8583 17.037 17.8583 16.6666C17.8583 16.2963 17.5578 15.9958 17.1874 15.9958H13.0208C12.6504 15.9958 12.3499 16.2963 12.3499 16.6666C12.3499 17.037 12.6504 17.3375 13.0208 17.3375H17.1874Z" fill="black" stroke="black" stroke-width="0.3"/>
</g>
</svg>
