<svg width="79" height="79" viewBox="0 0 79 79" fill="none" xmlns="http://www.w3.org/2000/svg">
<g id="clock">
<path id="clock_2" d="M44.9211 11.1386C29.2817 8.14928 14.1278 18.4397 11.1385 34.0791C8.14912 49.7184 18.4396 64.8724 34.0789 67.8617C49.7183 70.8511 64.8722 60.5606 67.8616 44.9213C70.8509 29.2819 60.5605 14.128 44.9211 11.1386ZM34.5952 65.1606C20.4469 62.4563 11.1352 48.7437 13.8396 34.5954C16.5439 20.447 30.2565 11.1354 44.4048 13.8397C58.5532 16.5441 67.8648 30.2566 65.1605 44.405C62.4561 58.5533 48.7436 67.865 34.5952 65.1606ZM47.1934 48.3789C47.6194 49.0063 47.4558 49.8627 46.8284 50.2887C46.5131 50.5028 46.1425 50.5664 45.7968 50.5003C45.451 50.4342 45.1306 50.2358 44.916 49.9232L38.3616 40.271C38.1562 39.9685 38.0813 39.5986 38.15 39.2394L40.7314 25.7339C40.8739 24.9884 41.5946 24.499 42.3401 24.6415C43.0856 24.784 43.575 25.5047 43.4325 26.2502L40.958 39.1965L47.1934 48.3789Z" fill="#4CAF50"/>
</g>
</svg>
