<svg width="31" height="31" viewBox="0 0 31 31" fill="none" xmlns="http://www.w3.org/2000/svg">
<g id="clock">
<path id="clock_2" d="M15.5 1.9375C8.02125 1.9375 1.9375 8.02125 1.9375 15.5C1.9375 22.9788 8.02125 29.0625 15.5 29.0625C22.9788 29.0625 29.0625 22.9788 29.0625 15.5C29.0625 8.02125 22.9788 1.9375 15.5 1.9375ZM15.5 27.7708C8.73425 27.7708 3.22917 22.2657 3.22917 15.5C3.22917 8.73425 8.73425 3.22917 15.5 3.22917C22.2657 3.22917 27.7708 8.73425 27.7708 15.5C27.7708 22.2657 22.2657 27.7708 15.5 27.7708ZM19.8323 18.9177C20.0841 19.1696 20.0841 19.5791 19.8323 19.831C19.7057 19.9576 19.5403 20.0196 19.375 20.0196C19.2097 20.0196 19.0443 19.9563 18.9177 19.831L15.0427 15.956C14.9213 15.8346 14.8542 15.6705 14.8542 15.4987V9.04041C14.8542 8.68391 15.1435 8.39457 15.5 8.39457C15.8565 8.39457 16.1458 8.68391 16.1458 9.04041V15.2313L19.8323 18.9177Z" fill="#4CAF50"/>
</g>
</svg>
