<svg width="28" height="27" viewBox="0 0 28 27" fill="none" xmlns="http://www.w3.org/2000/svg">
<g id="times">
<path id="times_2" d="M21.3465 19.6538C21.6761 19.9835 21.6761 20.5179 21.3465 20.8475C21.1822 21.0118 20.9662 21.095 20.7502 21.095C20.5342 21.095 20.3182 21.0129 20.154 20.8475L14.0002 14.6937L7.84645 20.8475C7.6822 21.0118 7.46621 21.095 7.25021 21.095C7.03421 21.095 6.81821 21.0129 6.65396 20.8475C6.32433 20.5179 6.32433 19.9835 6.65396 19.6538L12.8077 13.5001L6.65396 7.3464C6.32433 7.01678 6.32433 6.48236 6.65396 6.15274C6.98358 5.82311 7.51796 5.82311 7.84759 6.15274L14.0013 12.3065L20.1551 6.15274C20.4847 5.82311 21.0191 5.82311 21.3487 6.15274C21.6783 6.48236 21.6783 7.01678 21.3487 7.3464L15.195 13.5001L21.3465 19.6538Z" fill="#25314C"/>
</g>
</svg>
