<svg width="25" height="25" viewBox="0 0 25 25" fill="none" xmlns="http://www.w3.org/2000/svg">
<g id="file-times" opacity="0.4">
<path id="file-times_2" d="M21.3854 8.82292L15.1354 2.57292C14.9885 2.42604 14.7905 2.34375 14.5833 2.34375L8.33325 2.34375C5.8145 2.34375 4.427 3.73125 4.427 6.25L4.427 18.75C4.427 21.2687 5.8145 22.6562 8.33325 22.6562H17.7083C20.227 22.6562 21.6145 21.2687 21.6145 18.75V9.375C21.6145 9.16771 21.5322 8.96875 21.3854 8.82292ZM15.3645 5.01146L18.9468 8.59375H17.7083C16.0655 8.59375 15.3645 7.89271 15.3645 6.25V5.01146ZM17.7083 21.0938H8.33325C6.69054 21.0938 5.9895 20.3927 5.9895 18.75V6.25C5.9895 4.60729 6.69054 3.90625 8.33325 3.90625H13.802V6.25C13.802 8.76875 15.1895 10.1562 17.7083 10.1562H20.052V18.75C20.052 20.3927 19.351 21.0938 17.7083 21.0938ZM15.6562 13.0521L14.125 14.5833L15.6562 16.1146C15.9614 16.4198 15.9614 16.9146 15.6562 17.2198C15.5041 17.3719 15.3041 17.449 15.1041 17.449C14.9041 17.449 14.7041 17.3729 14.552 17.2198L13.0208 15.6885L11.4895 17.2198C11.3374 17.3719 11.1374 17.449 10.9374 17.449C10.7374 17.449 10.5374 17.3729 10.3853 17.2198C10.0801 16.9146 10.0801 16.4198 10.3853 16.1146L11.9165 14.5833L10.3853 13.0521C10.0801 12.7469 10.0801 12.2521 10.3853 11.9469C10.6905 11.6417 11.1853 11.6417 11.4905 11.9469L13.0218 13.4781L14.553 11.9469C14.8582 11.6417 15.353 11.6417 15.6582 11.9469C15.9634 12.2521 15.9614 12.7469 15.6562 13.0521Z" fill="#25314C"/>
</g>
</svg>
