<svg width="103" height="22" viewBox="0 0 103 22" fill="none" xmlns="http://www.w3.org/2000/svg">
<g id="Group 427319417">
<g id="Group 427319446">
<g id="Group">
<path id="Vector" d="M102.845 6.07038L91.7802 17.7617C90.8174 18.7788 89.2572 18.7788 88.2962 17.7617L86.8606 16.2467C86.7932 16.1738 86.7932 16.0564 86.8606 15.9835L99.5458 2.58167C99.7511 2.36473 100.086 2.36474 100.293 2.58345L102.845 5.28087C103.052 5.49958 103.052 5.85167 102.845 6.07038Z" fill="black"/>
<path id="Vector_2" d="M93.5643 5.69653L82.4965 17.3896C81.5338 18.4067 79.9752 18.4067 79.0125 17.3896L73.4702 11.5342C73.2632 11.3172 73.2632 10.9634 73.4702 10.7464L76.0268 8.04723C76.2321 7.83029 76.567 7.83029 76.7724 8.04723L80.63 12.1245C80.699 12.1956 80.8101 12.1956 80.8791 12.1245L90.2639 2.20957C90.4692 1.99264 90.8041 1.99264 91.0094 2.20957L93.5643 4.90702C93.7697 5.12396 93.7697 5.47782 93.5643 5.69653Z" fill="#0C58DB"/>
</g>
<g id="Group_2">
<g id="Group_3">
<path id="Vector_3" d="M55.0273 5.0831V6.79724C62.1921 5.55609 65.8915 6.50919 65.8915 12.0321V14.9145H51.6814V9.5249C51.6814 5.91172 49.3537 4.8395 46.3494 4.8395H42.9681V6.43983H46.3494C49.0962 6.43983 49.9798 7.49248 49.9798 9.52312V14.9127H41.9751V16.5521H67.5746V12.0783C67.5762 5.79791 64.0889 3.64281 55.0273 5.0831Z" fill="black"/>
<path id="Vector_4" d="M23.4795 14.9157H11.8545V4.82292H6.31048C1.35217 4.82292 0.249756 8.53213 0.249756 10.6054C0.249756 12.6788 1.35217 16.5551 6.31048 16.5551H25.1406V0.324219H23.4778V14.9157H23.4795ZM6.31217 14.9157C3.15305 14.9157 1.91429 12.7712 1.91429 10.6054C1.91429 8.43967 3.15305 6.46237 6.31217 6.46237H10.1933V14.9157H6.31217Z" fill="black"/>
<path id="Vector_5" d="M33.7692 4.81958C28.8109 4.81958 27.7085 8.52879 27.7085 10.6021C27.7085 12.6754 28.8109 16.5518 33.7692 16.5518H37.6504C37.6504 19.5088 36.2652 20.6433 30.1237 19.6119L29.8443 21.2372C37.844 22.6543 39.3133 20.517 39.3133 16.5535V4.82136H33.7692V4.81958ZM37.6504 14.9141H33.7692C30.6101 14.9141 29.3714 12.7697 29.3714 10.6039C29.3714 8.4381 30.6101 6.4608 33.7692 6.4608H37.6504V14.9141Z" fill="black"/>
<path id="Vector_6" d="M7.82291 2.51901C8.39347 2.51901 8.85798 2.03002 8.85798 1.42723C8.85798 0.824441 8.39515 0.335449 7.82291 0.335449C7.25235 0.335449 6.78784 0.824441 6.78784 1.42723C6.78952 2.03002 7.25235 2.51901 7.82291 2.51901Z" fill="black"/>
<path id="Vector_7" d="M4.97749 2.51901C5.54805 2.51901 6.01256 2.03002 6.01256 1.42723C6.01256 0.824441 5.54974 0.335449 4.97749 0.335449C4.40693 0.335449 3.94238 0.824441 3.94238 1.42723C3.94407 2.03002 4.40693 2.51901 4.97749 2.51901Z" fill="black"/>
<path id="Vector_8" d="M61.2997 19.218C60.7292 19.218 60.2646 19.707 60.2646 20.3116C60.2646 20.9144 60.7275 21.4034 61.2997 21.4034C61.8703 21.4034 62.3348 20.9144 62.3348 20.3116C62.3331 19.707 61.8703 19.218 61.2997 19.218Z" fill="black"/>
</g>
</g>
</g>
</g>
</svg>
