<svg width="28" height="27" viewBox="0 0 28 27" fill="none" xmlns="http://www.w3.org/2000/svg">
<g id="menu">
<path id="menu_2" d="M3.03125 6.75C3.03125 6.28425 3.40925 5.90625 3.875 5.90625L24.125 5.90625C24.5907 5.90625 24.9688 6.28425 24.9688 6.75C24.9688 7.21575 24.5907 7.59375 24.125 7.59375L3.875 7.59375C3.40925 7.59375 3.03125 7.21575 3.03125 6.75ZM24.125 12.6562H3.875C3.40925 12.6562 3.03125 13.0342 3.03125 13.5C3.03125 13.9657 3.40925 14.3438 3.875 14.3438H24.125C24.5907 14.3438 24.9688 13.9657 24.9688 13.5C24.9688 13.0342 24.5907 12.6562 24.125 12.6562ZM24.125 19.4062H3.875C3.40925 19.4062 3.03125 19.7843 3.03125 20.25C3.03125 20.7157 3.40925 21.0938 3.875 21.0938H24.125C24.5907 21.0938 24.9688 20.7157 24.9688 20.25C24.9688 19.7843 24.5907 19.4062 24.125 19.4062Z" fill="#25314C"/>
</g>
</svg>
