<svg width="25" height="25" viewBox="0 0 25 25" fill="none" xmlns="http://www.w3.org/2000/svg">
<g id="users-group" opacity="0.4">
<path id="users-group_2" d="M16.201 22.6562H8.79996C6.50308 22.6562 5.23741 21.3979 5.23741 19.1145C5.23741 16.6104 6.65415 13.6865 10.6489 13.6865H14.352C18.3468 13.6865 19.7635 16.6104 19.7635 19.1145C19.7635 21.3979 18.4979 22.6562 16.201 22.6562ZM10.6489 15.249C7.07707 15.249 6.79991 18.2072 6.79991 19.1145C6.79991 20.5208 7.38017 21.0937 8.79996 21.0937H16.201C17.6208 21.0937 18.201 20.5197 18.201 19.1145C18.201 18.2072 17.9228 15.249 14.352 15.249H10.6489ZM12.5084 12.252C10.3511 12.252 8.59574 10.4968 8.59574 8.33954C8.59574 6.18225 10.3511 4.42706 12.5084 4.42706C14.6656 4.42706 16.4218 6.18225 16.4218 8.33954C16.4218 10.4968 14.6656 12.252 12.5084 12.252ZM12.5084 5.98956C11.2125 5.98956 10.1582 7.04371 10.1582 8.33954C10.1582 9.63538 11.2125 10.6895 12.5084 10.6895C13.8042 10.6895 14.8593 9.63538 14.8593 8.33954C14.8593 7.04371 13.8042 5.98956 12.5084 5.98956ZM23.6979 13.1771C23.6979 11.1188 22.4219 9.0417 19.5729 9.0417H18.5624C18.1312 9.0417 17.7812 9.3917 17.7812 9.82295C17.7812 10.2542 18.1312 10.6042 18.5624 10.6042H19.5729C21.8865 10.6042 22.1354 12.4031 22.1354 13.1771C22.1354 14.0771 21.8134 14.3958 20.9062 14.3958H20.5312C20.0999 14.3958 19.7499 14.7458 19.7499 15.177C19.7499 15.6083 20.0999 15.9583 20.5312 15.9583H20.9062C22.6801 15.9583 23.6979 14.9448 23.6979 13.1771ZM18.8531 8.36981C20.2604 8.08647 21.2813 6.83023 21.2813 5.38544C21.2813 3.70836 19.9166 2.34373 18.2396 2.34373C17.4468 2.34373 16.7093 2.63745 16.1635 3.16974C15.8541 3.47078 15.8479 3.96561 16.149 4.27498C16.449 4.58436 16.9458 4.59065 17.2541 4.28961C17.5072 4.04273 17.8573 3.90725 18.2396 3.90725C19.0552 3.90725 19.7188 4.57083 19.7188 5.38646C19.7188 6.09063 19.2239 6.7021 18.5437 6.8396C18.1208 6.92502 17.8468 7.33743 17.9322 7.76035C18.0072 8.13118 18.3333 8.38748 18.6968 8.38748C18.7489 8.3854 18.801 8.38022 18.8531 8.36981ZM5.23957 15.177C5.23957 14.7458 4.88957 14.3958 4.45832 14.3958H4.09262C3.18533 14.3958 2.86353 14.0771 2.86353 13.1771C2.86353 12.4031 3.11244 10.6042 5.42598 10.6042H6.45722C6.88847 10.6042 7.23847 10.2542 7.23847 9.82295C7.23847 9.3917 6.88847 9.0417 6.45722 9.0417H5.42598C2.38119 9.0417 1.30103 11.2698 1.30103 13.1771C1.30103 14.9448 2.31866 15.9583 4.09262 15.9583H4.45832C4.88957 15.9583 5.23957 15.6083 5.23957 15.177ZM7.08957 7.75831C7.17499 7.33539 6.90099 6.92286 6.47808 6.83744C5.79058 6.6989 5.29158 6.08846 5.29158 5.3843C5.29158 4.56867 5.96039 3.90521 6.78122 3.90521C7.15622 3.90521 7.50927 4.04375 7.77698 4.29584C8.09052 4.59271 8.58433 4.5781 8.88121 4.26456C9.17808 3.95102 9.16347 3.45629 8.84993 3.16046C8.29264 2.63337 7.55828 2.34271 6.78224 2.34271C5.09994 2.34271 3.73022 3.70721 3.73022 5.3843C3.73022 6.82805 4.75618 8.08337 6.16972 8.36879C6.22181 8.37921 6.27394 8.3843 6.32498 8.3843C6.68852 8.38534 7.01353 8.12914 7.08957 7.75831Z" fill="#25314C"/>
</g>
</svg>
